HIERARCHY
ROOT Hips
{
	OFFSET 0.000000 1.471914 24.280096
	CHANNELS 6 Xposition Yposition Zposition Xrotation Yrotation Zrotation
	JOINT Spine
	{
		OFFSET 0.000000 0.900110 1.860670
		CHANNELS 6 Xposition Yposition Zposition Xrotation Yrotation Zrotation
		JOINT Spine1
		{
			OFFSET 0.000000 0.400320 2.270309
			CHANNELS 6 Xposition Yposition Zposition Xrotation Yrotation Zrotation
			JOINT Spine2
			{
				OFFSET 0.000000 0.200920 2.296560
				CHANNELS 6 Xposition Yposition Zposition Xrotation Yrotation Zrotation
				JOINT Spine3
				{
					OFFSET 0.000000 0.000000 2.305330
					CHANNELS 6 Xposition Yposition Zposition Xrotation Yrotation Zrotation
					JOINT Neck
					{
						OFFSET 0.000000 -0.864490 6.051487
						CHANNELS 6 Xposition Yposition Zposition Xrotation Yrotation Zrotation
						JOINT Head
						{
							OFFSET 0.000000 -0.550429 3.121674
							CHANNELS 6 Xposition Yposition Zposition Xrotation Yrotation Zrotation
							End Site
							{
								OFFSET 0.000000 0.000000 3.731750
							}
						}
					}
					JOINT RightShoulder
					{
						OFFSET -0.788280 -1.313800 4.256718
						CHANNELS 6 Xposition Yposition Zposition Xrotation Yrotation Zrotation
						JOINT RightArm
						{
							OFFSET -3.915130 0.000000 0.000000
							CHANNELS 6 Xposition Yposition Zposition Xrotation Yrotation Zrotation
							JOINT RightForeArm
							{
								OFFSET -6.914910 0.000000 0.000000
								CHANNELS 6 Xposition Yposition Zposition Xrotation Yrotation Zrotation
								JOINT RightHand
								{
									OFFSET -6.096219 0.000000 0.000000
									CHANNELS 6 Xposition Yposition Zposition Xrotation Yrotation Zrotation
									JOINT RightHandEnd
									{
										OFFSET -1.749950 0.000000 0.000000
										CHANNELS 6 Xposition Yposition Zposition Xrotation Yrotation Zrotation
										End Site
										{
											OFFSET -1.749950 0.000000 0.000000
										}
									}
									JOINT RightHandThumb1
									{
										OFFSET -0.699980 -1.166630 -0.466648
										CHANNELS 6 Xposition Yposition Zposition Xrotation Yrotation Zrotation
										End Site
										{
											OFFSET -1.690319 -0.452920 0.000000
										}
									}
								}
							}
						}
					}
					JOINT LeftShoulder
					{
						OFFSET 0.788280 -1.313800 4.256718
						CHANNELS 6 Xposition Yposition Zposition Xrotation Yrotation Zrotation
						JOINT LeftArm
						{
							OFFSET 3.915130 0.000000 0.000000
							CHANNELS 6 Xposition Yposition Zposition Xrotation Yrotation Zrotation
							JOINT LeftForeArm
							{
								OFFSET 6.914910 0.000000 0.000000
								CHANNELS 6 Xposition Yposition Zposition Xrotation Yrotation Zrotation
								JOINT LeftHand
								{
									OFFSET 6.096219 0.000000 0.000000
									CHANNELS 6 Xposition Yposition Zposition Xrotation Yrotation Zrotation
									JOINT LeftHandEnd
									{
										OFFSET 1.749950 0.000000 0.000000
										CHANNELS 6 Xposition Yposition Zposition Xrotation Yrotation Zrotation
										End Site
										{
											OFFSET 1.749950 0.000000 0.000000
										}
									}
									JOINT LeftHandThumb1
									{
										OFFSET 0.699980 -1.166630 -0.466648
										CHANNELS 6 Xposition Yposition Zposition Xrotation Yrotation Zrotation
										End Site
										{
											OFFSET 1.690319 -0.452920 0.000000
										}
									}
								}
							}
						}
					}
				}
			}
		}
	}
	JOINT RightUpLeg
	{
		OFFSET -2.338570 -0.252550 -0.551512
		CHANNELS 6 Xposition Yposition Zposition Xrotation Yrotation Zrotation
		JOINT RightLeg
		{
			OFFSET 0.000000 0.000000 -10.744959
			CHANNELS 6 Xposition Yposition Zposition Xrotation Yrotation Zrotation
			JOINT RightFoot
			{
				OFFSET 0.000000 -0.000001 -10.930849
				CHANNELS 6 Xposition Yposition Zposition Xrotation Yrotation Zrotation
				JOINT RightToeBase
				{
					OFFSET 0.000000 -4.087269 -1.487650
					CHANNELS 6 Xposition Yposition Zposition Xrotation Yrotation Zrotation
					End Site
					{
						OFFSET 0.000000 -1.891870 0.000000
					}
				}
			}
		}
	}
	JOINT LeftUpLeg
	{
		OFFSET 2.338570 -0.252550 -0.551512
		CHANNELS 6 Xposition Yposition Zposition Xrotation Yrotation Zrotation
		JOINT LeftLeg
		{
			OFFSET 0.000000 0.000000 -10.744959
			CHANNELS 6 Xposition Yposition Zposition Xrotation Yrotation Zrotation
			JOINT LeftFoot
			{
				OFFSET 0.000000 -0.000001 -10.930849
				CHANNELS 6 Xposition Yposition Zposition Xrotation Yrotation Zrotation
				JOINT LeftToeBase
				{
					OFFSET 0.000000 -4.087269 -1.487650
					CHANNELS 6 Xposition Yposition Zposition Xrotation Yrotation Zrotation
					End Site
					{
						OFFSET 0.000000 -1.891870 0.000000
					}
				}
			}
		}
	}
}
MOTION
Frames: 6
Frame Time: 0.041667
0.000173 27.699713 32.303730 -7.823134 -0.134424 -7.821451 -0.000014 0.900091 1.860698 18.284227 -3.678656 0.192892 0.000001 0.400277 2.270315 -0.000002 -0.000000 0.000003 0.000023 0.200890 2.296532 0.000001 -0.000001 -0.000000 0.000021 -0.000026 2.305324 0.000015 -0.000002 1.142289 -0.000007 -0.864474 6.051465 3.699230 -2.836298 170.176581 0.000015 -0.550446 3.121727 -0.000002 0.000000 -0.000004 -0.788282 -1.313732 4.256771 -127.843724 37.754636 -73.353725 -3.915078 -0.000002 -0.000035 -0.000007 -0.000004 0.000000 -6.914881 -0.000007 -0.000002 0.000012 0.000050 -29.190931 -6.096185 -0.000020 0.000002 -0.000160 -0.000133 -0.000074 -1.749920 -0.000012 0.000010 -0.000009 -0.000000 -0.000000 -0.700007 -1.166625 -0.466660 -0.000003 -0.000004 -0.000007 0.788264 -1.313785 4.256725 -116.243030 -20.094268 84.969602 3.915163 -0.000002 -0.000008 0.000001 -0.000001 0.000002 6.914908 -0.000022 -0.000021 0.000011 -0.000030 27.099290 6.096203 0.000055 -0.000003 -0.000063 0.000099 0.000011 1.749931 0.000013 0.000019 -0.000001 -0.000000 -0.000000 0.699938 -1.166610 -0.466659 0.000021 -0.000006 -0.000026 -2.338575 -0.252540 -0.551512 -74.925591 44.420856 -0.855769 0.000015 -0.000021 -10.744971 120.077895 -12.277375 44.356174 -0.000025 0.000052 -10.930840 -0.000017 -0.000006 -0.000005 -0.000003 -4.087256 -1.487641 0.000004 -0.000001 -0.000003 2.338576 -0.252530 -0.551461 -75.589567 -32.970904 -0.687601 -0.000005 -0.000034 -10.744933 115.237121 12.827047 -32.547286 -0.000012 0.000015 -10.930861 0.000031 -0.000002 0.000009 -0.000016 -4.087228 -1.487651 -0.000006 -0.000002 0.000001 
0.000169 27.699718 32.303726 -7.910142 0.016914 -8.070955 -0.000015 0.900087 1.860700 18.450965 -3.550928 0.254830 0.000001 0.400276 2.270315 -0.000001 -0.000000 0.000004 0.000022 0.200890 2.296543 0.000000 -0.000001 0.000000 0.000020 -0.000028 2.305327 0.000015 -0.000005 1.079601 -0.000008 -0.864476 6.051471 3.845851 -2.701568 169.799336 0.000016 -0.550439 3.121716 -0.000002 -0.000001 -0.000001 -0.788280 -1.313730 4.256781 -128.026746 36.766014 -73.921286 -3.915071 -0.000002 -0.000035 -0.000001 -0.000006 0.000001 -6.914877 -0.000009 0.000002 0.000017 0.000052 -28.581639 -6.096188 -0.000021 0.000004 -0.000153 -0.000131 -0.000071 -1.749920 -0.000011 0.000011 -0.000006 0.000000 0.000007 -0.700003 -1.166624 -0.466655 -0.000001 0.000000 -0.000001 0.788262 -1.313785 4.256729 -116.599279 -19.419756 84.479106 3.915164 -0.000004 -0.000011 0.000000 0.000001 0.000002 6.914913 -0.000023 -0.000014 0.000009 -0.000027 27.906266 6.096201 0.000056 -0.000006 -0.000065 0.000102 0.000012 1.749928 0.000011 0.000023 0.000002 -0.000005 -0.000003 0.699941 -1.166611 -0.466651 0.000025 -0.000008 -0.000028 -2.338575 -0.252545 -0.551511 -74.574929 44.189637 -1.108581 0.000018 -0.000015 -10.744966 119.916361 -12.498509 44.273378 -0.000026 0.000051 -10.930838 -0.000022 -0.000002 -0.000004 -0.000002 -4.087257 -1.487642 0.000000 0.000004 -0.000001 2.338575 -0.252533 -0.551463 -75.498760 -33.111050 -0.907444 -0.000006 -0.000027 -10.744936 115.127046 12.959732 -32.691987 -0.000012 0.000021 -10.930862 0.000029 -0.000003 0.000009 -0.000016 -4.087225 -1.487650 -0.000006 -0.000001 0.000001 
0.000165 27.699717 32.303726 -7.978399 0.164923 -8.089768 -0.000015 0.900094 1.860697 18.556348 -3.590545 0.328288 0.000000 0.400275 2.270311 -0.000003 -0.000000 0.000003 0.000023 0.200890 2.296535 0.000001 0.000001 0.000002 0.000021 -0.000030 2.305324 0.000017 -0.000004 1.117344 -0.000007 -0.864479 6.051480 4.060393 -2.729022 170.008422 0.000017 -0.550439 3.121735 -0.000001 -0.000001 -0.000004 -0.788278 -1.313736 4.256782 -128.377859 36.957211 -73.903439 -3.915071 0.000002 -0.000035 -0.000006 -0.000005 0.000001 -6.914881 -0.000009 -0.000002 0.000015 0.000053 -28.475180 -6.096191 -0.000020 0.000004 -0.000153 -0.000133 -0.000073 -1.749918 -0.000014 0.000019 -0.000003 0.000003 0.000009 -0.700003 -1.166628 -0.466655 -0.000001 0.000002 0.000001 0.788262 -1.313791 4.256731 -116.783517 -18.379605 84.149864 3.915163 -0.000004 -0.000011 0.000002 0.000001 0.000001 6.914911 -0.000023 -0.000014 0.000011 -0.000025 28.779231 6.096198 0.000055 -0.000007 -0.000069 0.000102 0.000009 1.749924 0.000017 0.000023 0.000003 -0.000005 -0.000002 0.699933 -1.166606 -0.466651 0.000021 -0.000008 -0.000029 -2.338576 -0.252540 -0.551512 -74.208953 44.336940 -1.416525 0.000018 -0.000016 -10.744968 119.938122 -12.576223 44.536853 -0.000027 0.000054 -10.930840 -0.000019 -0.000004 -0.000003 -0.000002 -4.087257 -1.487643 0.000003 0.000005 -0.000001 2.338575 -0.252525 -0.551461 -75.356985 -33.052887 -1.166103 -0.000006 -0.000027 -10.744936 115.217314 13.327628 -32.642246 -0.000012 0.000016 -10.930861 0.000031 -0.000002 0.000009 -0.000015 -4.087230 -1.487650 -0.000005 -0.000002 0.000002 
0.000164 27.699718 32.303726 -7.992905 0.136239 -8.268701 -0.000014 0.900091 1.860696 18.579417 -3.469603 0.334274 0.000001 0.400280 2.270311 -0.000001 0.000001 0.000004 0.000022 0.200890 2.296535 0.000003 -0.000000 -0.000001 0.000020 -0.000029 2.305327 0.000018 -0.000002 1.063797 -0.000006 -0.864478 6.051474 4.328591 -2.388283 169.750323 0.000016 -0.550440 3.121731 0.000001 0.000001 -0.000003 -0.788277 -1.313739 4.256779 -128.359772 37.345634 -74.346869 -3.915069 -0.000001 -0.000035 0.000002 -0.000005 0.000002 -6.914884 -0.000010 -0.000008 0.000019 0.000052 -28.070980 -6.096187 -0.000020 0.000002 -0.000153 -0.000132 -0.000073 -1.749921 -0.000012 0.000018 -0.000009 0.000002 0.000010 -0.700004 -1.166625 -0.466649 -0.000005 -0.000002 0.000002 0.788263 -1.313787 4.256733 -117.124220 -18.243353 83.547980 3.915159 -0.000003 -0.000012 0.000003 -0.000001 0.000002 6.914912 -0.000023 -0.000018 0.000010 -0.000024 29.770974 6.096202 0.000055 -0.000005 -0.000060 0.000098 0.000009 1.749932 0.000015 0.000019 -0.000000 -0.000002 -0.000000 0.699939 -1.166608 -0.466658 0.000021 -0.000005 -0.000026 -2.338575 -0.252544 -0.551514 -74.273287 44.204086 -1.437601 0.000016 -0.000018 -10.744967 120.130897 -12.753252 44.427819 -0.000025 0.000055 -10.930839 -0.000019 -0.000004 -0.000004 -0.000005 -4.087258 -1.487642 0.000004 -0.000004 -0.000001 2.338576 -0.252531 -0.551463 -75.278254 -33.000930 -1.185232 -0.000005 -0.000029 -10.744937 115.330408 13.418936 -32.586535 -0.000013 0.000020 -10.930854 0.000032 -0.000002 0.000009 -0.000017 -4.087229 -1.487651 -0.000004 -0.000001 0.000001 
0.000163 27.699718 32.303726 -8.119963 0.028522 -8.256044 -0.000015 0.900089 1.860696 18.665804 -3.344886 0.312207 0.000001 0.400276 2.270315 -0.000003 0.000001 0.000003 0.000023 0.200890 2.296528 0.000002 -0.000001 -0.000001 0.000020 -0.000021 2.305320 0.000015 -0.000004 1.181755 -0.000007 -0.864477 6.051472 4.390427 -2.317556 170.239050 0.000016 -0.550443 3.121723 -0.000001 0.000000 -0.000006 -0.788278 -1.313730 4.256773 -128.401614 38.040551 -74.394202 -3.915074 -0.000001 -0.000035 -0.000004 -0.000005 0.000002 -6.914885 -0.000010 -0.000005 0.000017 0.000052 -27.862579 -6.096194 -0.000020 -0.000002 -0.000158 -0.000134 -0.000068 -1.749919 -0.000014 0.000014 -0.000005 0.000001 0.000003 -0.700003 -1.166624 -0.466659 -0.000003 -0.000003 -0.000003 0.788263 -1.313787 4.256729 -117.448286 -17.352552 83.093725 3.915160 -0.000004 -0.000011 0.000004 -0.000001 0.000002 6.914914 -0.000022 -0.000018 0.000011 -0.000027 30.796565 6.096197 0.000054 -0.000004 -0.000067 0.000102 0.000011 1.749921 0.000018 0.000019 0.000001 -0.000004 0.000000 0.699932 -1.166606 -0.466655 0.000021 -0.000007 -0.000027 -2.338575 -0.252544 -0.551509 -74.913836 44.204373 -1.341769 0.000014 -0.000014 -10.744964 120.747322 -12.398435 44.135706 -0.000026 0.000054 -10.930840 -0.000017 -0.000004 -0.000004 -0.000003 -4.087257 -1.487642 0.000003 -0.000002 -0.000000 2.338576 -0.252534 -0.551456 -75.339411 -32.811136 -1.098963 -0.000005 -0.000026 -10.744937 115.604954 13.570892 -32.402971 -0.000012 0.000017 -10.930860 0.000029 -0.000003 0.000010 -0.000017 -4.087227 -1.487648 -0.000009 -0.000005 0.000002 
0.000162 27.699720 32.303726 -8.132725 -0.048952 -8.333910 -0.000015 0.900087 1.860698 18.682840 -3.224040 0.285459 0.000001 0.400275 2.270304 -0.000002 0.000000 0.000004 0.000023 0.200888 2.296537 0.000001 -0.000000 -0.000000 0.000021 -0.000024 2.305331 0.000017 -0.000005 1.304232 -0.000006 -0.864475 6.051484 4.499462 -2.146179 170.414927 0.000018 -0.550441 3.121727 -0.000001 -0.000001 -0.000002 -0.788278 -1.313732 4.256783 -128.346617 38.296942 -74.513020 -3.915076 -0.000003 -0.000035 -0.000004 -0.000005 0.000000 -6.914881 -0.000009 0.000003 0.000015 0.000053 -27.889503 -6.096193 -0.000021 0.000002 -0.000155 -0.000132 -0.000066 -1.749919 -0.000010 0.000009 -0.000005 0.000004 0.000006 -0.700004 -1.166623 -0.466657 -0.000006 0.000001 0.000001 0.788262 -1.313788 4.256735 -117.709855 -17.457089 82.650446 3.915164 -0.000003 -0.000012 0.000003 -0.000001 0.000002 6.914903 -0.000023 -0.000015 0.000010 -0.000026 31.050166 6.096204 0.000054 -0.000001 -0.000068 0.000100 0.000009 1.749924 0.000016 0.000020 0.000004 -0.000000 0.000004 0.699933 -1.166607 -0.466659 0.000021 -0.000004 -0.000030 -2.338576 -0.252541 -0.551517 -75.658210 43.933778 -1.225479 0.000012 -0.000025 -10.744968 121.146314 -12.000308 43.557155 -0.000028 0.000054 -10.930841 -0.000017 -0.000008 -0.000001 -0.000003 -4.087254 -1.487641 0.000006 -0.000003 -0.000000 2.338575 -0.252530 -0.551467 -75.424263 -32.851677 -1.003430 -0.000006 -0.000030 -10.744937 115.747227 13.439703 -32.416973 -0.000011 0.000020 -10.930859 0.000034 -0.000000 0.000008 -0.000016 -4.087229 -1.487650 -0.000003 -0.000001 0.000000 
